<svg xmlns="http://www.w3.org/2000/svg" viewBox="0.861762 0.373363 23.29 23.94">
	<path d="M 20.145 14.698 L 16.0164 15.572 C 14.2575 16.1005 14.0806 17.816 15.2686 17.8736 L 19.2262 17.0874 C 17.8484 20.8574 13.9669 22.6855 10.3143 21.319 A 2.42 2.42 99 0 1 15.414 3.245 C 17.402 3.842 18.237 4.836 19.151 7.659 C 19.39 9.369 21.179 8.852 21.179 7.54 C 21.179 5.512 19.907 2.132 16.288 0.86 A 2.42 2.42 99 0 0 9.5117 23.9629 C 15.175 25.434 20.0367 22.0695 21.3673 18.4334 L 22.2676 22.2782 C 22.5385 23.507 24.548 22.855 24.0815 20.8038 L 22.8684 15.9032 C 22.3126 14.7388 21.236 14.4973 20.145 14.698" fill="#000000"/>
</svg>