<svg xmlns="http://www.w3.org/2000/svg" width="1200" height="630" viewBox="0 0 1200 630" fill="none">
  <line x1="120" y1="310" x2="970" y2="310" stroke="#475569" stroke-width="8" stroke-linecap="round"/>
  <line x1="560" y1="310" x2="700" y2="210" stroke="#475569" stroke-width="8" stroke-linecap="round"/>
  <line x1="700" y1="210" x2="890" y2="210" stroke="#475569" stroke-width="8" stroke-linecap="round"/>

  <circle cx="220" cy="310" r="20" fill="#1f2937" stroke="#60a5fa" stroke-width="6"/>
  <circle cx="390" cy="310" r="20" fill="#1f2937" stroke="#60a5fa" stroke-width="6"/>
  <circle cx="560" cy="310" r="20" fill="#1f2937" stroke="#60a5fa" stroke-width="6"/>
  <circle cx="720" cy="310" r="20" fill="#1f2937" stroke="#22c55e" stroke-width="6"/>
  <circle cx="890" cy="310" r="20" fill="#1f2937" stroke="#f59e0b" stroke-width="6"/>
  <circle cx="890" cy="210" r="20" fill="#1f2937" stroke="#a78bfa" stroke-width="6" stroke-dasharray="6 8"/>

  <g transform="rotate(-6 720 404)">
    <rect x="635" y="383" width="170" height="42" rx="10" fill="#14532d"/>
    <text x="720" y="410" fill="#dcfce7" font-family="ui-monospace, SFMono-Regular, Menlo, monospace" font-size="18" text-anchor="middle">AI snapshot</text>
  </g>

  <g transform="rotate(-6 890 131)">
    <rect x="740" y="110" width="300" height="42" rx="10" fill="#4c1d95"/>
    <text x="890" y="137" fill="#f5f3ff" font-family="ui-monospace, SFMono-Regular, Menlo, monospace" font-size="17" text-anchor="middle">${USER}/review_in_progress</text>
  </g>

  <text x="890" y="262" fill="#cbd5e1" font-family="ui-monospace, SFMono-Regular, Menlo, monospace" font-size="42" font-weight="700" text-anchor="middle">=</text>

  <g transform="rotate(-6 890 404)">
    <rect x="785" y="383" width="210" height="42" rx="10" fill="#78350f"/>
    <text x="890" y="410" fill="#fef3c7" font-family="ui-monospace, SFMono-Regular, Menlo, monospace" font-size="18" text-anchor="middle">review feedback</text>
  </g>
</svg>
